<?xml version="1.0" standalone="no"?>
<!DOCTYPE svg PUBLIC "-//W3C//DTD SVG 1.1//EN" "http://www.w3.org/Graphics/SVG/1.1/DTD/svg11.dtd">
<svg xmlns="http://www.w3.org/2000/svg" xmlns:xlink="http://www.w3.org/1999/xlink" version="1.1" id="Livello_1" x="0px" y="0px" viewBox="0 0 475.74 91.28" style="enable-background:new 0 0 475.74 91.28;" xml:space="preserve" width="475.739990234375" height="91.27999877929688">
<style type="text/css">
	.st0{fill:#FFFFFF;}
</style>
<g>
	<path class="st0" d="M133.08,5.62v79.03h-14.62V40.6l-11.84,44.05h-9.2L85.57,40.6v44.05H70.95V5.62h18.64l12.43,46.9l12.43-46.9   H133.08z"/>
	<path class="st0" d="M236.48,28.47h15.64v56.17h-15.64V28.47z"/>
	<path class="st0" d="M334.9,31.92c0-20.89,11.92-27.32,23.21-27.32c10.93,0,22.46,6.16,22.76,26.57v2.45h-15.11l-0.03-2.05   c-0.33-8.49-3.08-12.3-7.62-12.3c-4.85,0-7.7,3.97-7.7,13.38v24.77c0,9.48,2.85,13.46,7.7,13.46c4.5,0,7.23-3.78,7.62-12.25   l0.03-2.18h15.11v2.47c-0.26,20.45-11.82,26.64-22.76,26.64c-11.29,0-23.21-6.44-23.21-27.32L334.9,31.92z"/>
	<g>
		<path class="st0" d="M65.02,42.37V28.88c-1.66-0.01-3.34,0.08-5.02,0.27c-0.44-2.78-1.07-5.59-2.02-8.39    c-1.06-3.09-4.27-12.51-13.14-15.24c-5.43-1.67-11.06-0.55-16.28,3.23c-4.53,3.28-7.67,7.84-9.14,10.26    c-5.49,9.04-8.29,19.83-10.76,29.36l-0.12,0.46c-2.34,9.03-3.83,24.9-3.95,35.91h13.48c0.12-10.45,1.66-25.3,3.53-32.52l0.12-0.46    c2.35-9.05,4.78-18.41,9.23-25.75c3.74-6.17,7.77-8.26,9.93-7.6c0.86,0.26,2.56,1.48,4.34,6.7c0.81,2.37,1.31,4.92,1.67,7.52    c-3.8,1.63-7.3,3.75-10.23,6.26c-7.13,6.11-11.83,14.11-12.9,21.95c-1.06,7.79,0.69,14.82,4.8,19.27    c3.74,4.06,9.15,5.84,14.46,4.78c8.29-1.66,14.34-9.92,17.04-23.27c1.14-5.62,1.53-11.77,1.21-19.04    C62.53,42.43,63.79,42.36,65.02,42.37z M46.83,58.95c-0.58,2.87-1.39,5.74-2.68,8.37c-0.74,1.51-2.17,4.4-4.16,4.35    c-3.56-0.09-3.17-6.8-2.87-9.01c0.62-4.54,3.72-9.59,8.3-13.52c0.76-0.65,1.58-1.26,2.45-1.83    C47.88,51.67,47.53,55.47,46.83,58.95z"/>
	</g>
	<circle class="st0" cx="244.13" cy="13.91" r="8.96"/>
	<g>
		<path class="st0" d="M412.63,85.74c-0.2,0-0.4,0-0.6-0.01c-10.29-0.24-19.29-6.49-22.92-15.92c-3.19-8.26-2.33-17.25-1.4-23.3    l9.31,1.42c-1.2-1.08-2.3-2.26-3.26-3.52c-3.74-4.89-5.32-10.83-4.46-16.73c1.5-10.32,10.13-19.33,20.99-21.91    c7.81-1.86,15.78-0.39,22.43,4.15c7.37,5.03,12.54,13.52,13.83,22.74c0.25,1.77,0.42,3.56,0.5,5.36    c5.07-2.14,10.64-5.26,16.16-9.8l8.61,10.46c-9.05,7.45-18.21,11.75-25.9,14.22c-1.23,6.1-3.4,11.85-6.4,16.75    C433.51,79.48,423.01,85.73,412.63,85.74z M400.79,50.78c-0.53,4.3-0.75,9.71,0.96,14.16c1.65,4.29,5.81,7.14,10.59,7.25    c5.74,0.13,12.02-3.72,15.61-9.59c1.21-1.98,2.24-4.19,3.08-6.56c-2.13,0.2-3.6,0.22-4.23,0.22c-6.9,0.32-13.7-0.55-19.68-2.5    C404.89,53.02,402.75,52.01,400.79,50.78z M416.91,18.54c-1.09,0-2.26,0.13-3.49,0.42c-5.41,1.29-10.02,5.88-10.72,10.68    c-0.8,5.51,3.91,9.69,8.63,11.23c4.48,1.47,9.67,2.1,15.01,1.84l0.26-0.01l0.26,0.01c0.06,0,2.6,0.02,6.67-0.68    c0.06-2.5-0.07-5.01-0.42-7.47c-0.77-5.5-3.78-10.52-8.05-13.43C423.21,19.85,420.43,18.54,416.91,18.54z"/>
	</g>
	<path class="st0" d="M218.46,60.17c-0.77,1.44-1.44,2.87-2.1,4.26c-1.06,2.24-2.15,4.48-3.41,6.61c-0.34,0.57-0.83,1.29-1.5,1.49   c-0.41,0.12-0.77-0.07-0.96-0.44c-0.45-0.93,0.18-2.13,0.53-2.98c0.45-1.08,0.92-2.16,1.4-3.23c0.96-2.14,1.97-4.26,3.03-6.35   c2.11-4.15,4.51-8.17,6.6-12.34c2.1-4.2,3.82-8.59,5.36-13.02c0.12-0.34,0.23-0.67,0.35-1.01c0.92-2.74,1.58-5.43,1.68-8.34   c0.2-6.15-2.43-10.99-7.39-13.65c-7.16-3.83-14.33,0-18.61,2.29l-0.64,0.34c-2.23,1.18-4.34,2.41-6.35,3.71   c-2.21-5.07-5.47-8.77-9.66-10.89C182.13,4.27,176.6,4.04,171.2,6c-9.64,3.49-17.04,12.08-22.64,26.26   c-3.71,9.41-6.27,20.01-8.04,33.39c-0.84,6.36-1.33,11.68-1.52,16.73l-0.13,2.31h13.52l0.09-1.6l0.01-0.14   c0.17-4.64,0.62-9.57,1.41-15.53c1.63-12.26,3.92-21.86,7.22-30.21c4.09-10.37,8.9-16.43,14.68-18.52c1.91-0.69,3.56-0.7,4.89-0.03   c1.92,0.97,3.53,3.75,4.53,7.68c-5.54,5.23-10.44,11.3-14.6,18.12c-2.48,4.07-4.79,8.55-7.04,13.72   c-1.65,3.77-4.4,10.08-2.78,16.59c1.32,5.28,5.32,9.3,10.2,10.24c4.58,0.88,9.67-0.5,13.97-3.79c4.12-3.15,7.38-7.86,9.7-14.01   c1.87-4.95,3.12-10.37,4.05-17.58c0.74-5.71,1.34-11.76,0.93-17.89c1.88-1.33,3.8-2.61,5.74-3.85c1.9-1.22,3.8-2.52,5.8-3.58   c1.03-0.55,2.21-1.38,3.46-1.23c1.4,0.17,1.75,1.59,1.54,2.8c-0.39,2.21-1.44,4.25-2.33,6.29c-2.4,5.5-5,10.91-7.83,16.2   c-2.75,5.16-6.11,10.13-7.9,15.74c-0.93,2.92-1.38,5.99-1.09,9.05c0.55,5.81,4.16,10.51,9.43,12.25c5.4,1.79,11.48,0.08,15.49-4.36   c3.1-3.43,4.97-7.39,6.61-10.88c0.61-1.3,1.19-2.52,1.8-3.66L218.46,60.17z M186.55,43.72c-0.02,0.25-0.04,0.49-0.06,0.74   c-0.03,0.39-0.07,0.78-0.11,1.17c-0.05,0.51-0.11,1.02-0.17,1.53c-0.07,0.61-0.15,1.22-0.24,1.84c-0.1,0.7-0.21,1.39-0.32,2.08   c-0.13,0.76-0.26,1.52-0.41,2.27c-0.16,0.8-0.33,1.61-0.52,2.4c-0.19,0.83-0.4,1.66-0.63,2.48c-0.23,0.84-0.48,1.67-0.75,2.49   c-0.27,0.82-0.57,1.64-0.89,2.44c-0.32,0.79-0.66,1.57-1.03,2.34c-1.1,2.28-2.53,4.42-4.41,6.14c-0.41,0.37-0.84,0.73-1.34,0.97   c-0.6,0.29-1.23,0.35-1.88,0.2c-0.45-0.1-0.87-0.34-1.14-0.72c-0.36-0.5-0.44-1.14-0.45-1.74c0-0.1,0-0.21,0-0.31   c0-0.14,0.01-0.29,0.02-0.43c0.01-0.19,0.03-0.37,0.06-0.55c0.03-0.23,0.06-0.45,0.1-0.68c0.05-0.27,0.1-0.53,0.15-0.8   c0.07-0.31,0.14-0.62,0.22-0.92c0.09-0.35,0.19-0.7,0.3-1.05c0.12-0.39,0.25-0.78,0.39-1.17c0.15-0.44,0.32-0.87,0.49-1.3   c0.19-0.48,0.39-0.95,0.6-1.42c0.23-0.52,0.47-1.04,0.72-1.55c0.27-0.56,0.56-1.12,0.85-1.68c0.32-0.61,0.66-1.21,1-1.8   c0.37-0.65,0.76-1.29,1.16-1.93c0.43-0.69,0.87-1.38,1.32-2.06c0.49-0.74,0.99-1.46,1.5-2.18c0.55-0.78,1.12-1.55,1.69-2.31   c0.62-0.82,1.25-1.64,1.9-2.44c0.3-0.38,0.61-0.76,0.92-1.14c0.16-0.19,0.32-0.39,0.48-0.58c0.08-0.1,0.17-0.2,0.25-0.3   c0.04-0.05,0.08-0.1,0.12-0.14c0.02-0.03,0.12-0.11,0.12-0.14C186.56,43.54,186.56,43.63,186.55,43.72z"/>
	<path class="st0" d="M316.05,54.66c-1.99,6.78-7.31,12.87-13.54,15.52c-7.1,3.02-15.17,2.4-20.55-1.59   c-5.49-4.07-9.33-11.34-10.04-18.98c-0.21-2.27-0.13-4.48,0.24-6.56c1.91-10.84,9.92-19.96,20.9-23.8   c4.54-1.59,9.8-1.56,13.08,0.07c1.89,0.94,3.08,2.32,3.74,4.34c1.59,4.88-1.43,10.1-5.22,12.73c-2.59,1.79-5.68,2.96-8.76,3.74   l9.24,11.15c3.22-1.28,5.49-2.65,7.19-3.83c9.35-6.48,13.6-17.97,10.36-27.96c-1.78-5.46-5.43-9.69-10.56-12.24   c-6.61-3.28-15.39-3.54-23.49-0.71c-15.57,5.44-26.95,18.53-29.71,34.16c-0.58,3.26-0.71,6.67-0.39,10.13   c1.06,11.51,6.82,22.19,15.42,28.56c5.5,4.07,12.28,6.16,19.31,6.16c4.84,0,9.79-0.99,14.52-3c9.94-4.23,18.05-13.46,21.18-24.11   L316.05,54.66z"/>
</g>
</svg>