<svg xmlns="http://www.w3.org/2000/svg" width="120" height="120" viewBox="0 0 120 120">
  <g fill="#F84070" opacity="0.5">
    <!-- Banana 1 -->
    <path d="M25 15 C20 10, 10 15, 12 30 C14 45, 22 50, 28 48 C30 47, 28 42, 24 35 C20 28, 22 18, 25 15Z" transform="rotate(20, 25, 30)"/>
    <!-- Banana 2 -->
    <path d="M85 65 C80 60, 70 65, 72 80 C74 95, 82 100, 88 98 C90 97, 88 92, 84 85 C80 78, 82 68, 85 65Z" transform="rotate(-15, 85, 80)"/>
    <!-- Banana 3 -->
    <path d="M70 10 C65 5, 55 10, 57 25 C59 40, 67 45, 73 43 C75 42, 73 37, 69 30 C65 23, 67 13, 70 10Z" transform="rotate(45, 70, 25)"/>
    <!-- Banana 4 -->
    <path d="M30 75 C25 70, 15 75, 17 90 C19 105, 27 110, 33 108 C35 107, 33 102, 29 95 C25 88, 27 78, 30 75Z" transform="rotate(-30, 30, 90)"/>
  </g>
</svg>
