<?xml version="1.0" standalone="no"?>
<!DOCTYPE svg PUBLIC "-//W3C//DTD SVG 1.1//EN" "http://www.w3.org/Graphics/SVG/1.1/DTD/svg11.dtd">
<svg xmlns="http://www.w3.org/2000/svg" xmlns:xlink="http://www.w3.org/1999/xlink" version="1.1" id="Livello_1" x="0px" y="0px" viewBox="0 0 527.6 117.5" style="enable-background:new 0 0 527.6 117.5;" xml:space="preserve" width="527.5999755859375" height="117.5"> <style type="text/css"> .st0{fill:#EA148C;} .st1{fill:#FFFFFF;} </style> <g> <path class="st0" d="M518.5,98.4h-23.9v-11h-8.2v29.9c0.2,0,0.3,0.1,0.5,0.1c11.2,0,22.3,0,33.4,0c3.6,0,6.1-2.2,7.1-5.7 c0-0.1,0.1-0.3,0.2-0.4v-6.7C525.7,99.6,523.8,98.4,518.5,98.4z M519.3,109.2h-24.6v-3.1h24.6V109.2z"/> <path class="st0" d="M502.4,5.4c-0.6,3.9-1.1,7.8-1.9,11.7c-3.1,14.7-9,28.3-18.3,40.3c-6.9,8.8-15.1,16-25.5,20.4 c-8.9,3.7-18,4.8-27.4,2.1c-14.2-4.2-24.1-16.4-25.5-31.1c-1.7-18.5,11.3-35.3,29.7-38.3c15.7-2.6,31.1,5.3,38.1,19.6 c0.2,0.4,0.4,0.8,0.7,1.5c1.9-1.8,3.8-3.4,5.5-5.2c7.3-7.2,13.5-15.2,18.6-24.1c0.3-0.5,0.6-1,1-1.3c1.2-1.1,2.5-1.1,3.7,0 C502.4,2.1,502.6,3.7,502.4,5.4z"/> <path class="st1" d="M333.9,81.9c-3.9,0.1-7.8,0-11.6,0c-1.3,0-2-0.9-2.6-1.9c-4.4-7.4-8.8-14.8-13.2-22.2 c-4-6.6-7.9-13.2-11.8-19.8c-0.2-0.3-0.4-0.7-0.7-1.1c-0.3,0.5-0.5,0.8-0.8,1.2C284.8,52.1,276.4,66,268,80c-0.6,1-1.2,1.8-2.4,2 c-1.5,0.2-2.5-0.5-3.3-1.8c-4.7-7.9-9.4-15.8-14.1-23.6c-3.9-6.5-7.7-13-11.7-19.6c-0.3,0.5-0.5,0.9-0.8,1.3 c-8.4,13.9-16.8,27.8-25.1,41.7c-0.9,1.5-2,2.1-3.7,2.1c-3.3-0.1-6.6,0-10,0c-1.2,0-2.3-0.2-3-1.4c-0.7-1.2-0.4-2.3,0.3-3.4 C206.4,57.1,218.4,37,230.5,17c1-1.8,2.1-3.5,3.1-5.2c1.7-2.8,4-2.8,5.6,0c8.3,13.9,16.6,27.9,25,41.8c0.3,0.4,0.5,0.9,0.9,1.4 c0.3-0.5,0.5-0.8,0.7-1.2c8.4-14,16.9-28,25.3-42c0.4-0.7,0.9-1.3,1.6-1.7c1.4-0.8,2.9-0.2,3.9,1.5c4.1,6.8,8.2,13.7,12.3,20.6 c8.9,14.9,17.8,29.8,26.7,44.7c0.2,0.4,0.5,0.8,0.7,1.2C337.1,79.9,335.9,81.9,333.9,81.9z"/> <path class="st1" d="M113.9,14.4c-13.2,21.9-26.4,43.8-39.5,65.7c-1.6,2.6-4.1,2.6-5.7-0.1l-25-41.8c-0.2-0.4-0.5-0.7-0.8-1.3 c-0.8,1.3-1.5,2.5-2.2,3.7c-7.8,13-15.7,26-23.5,39.1c-1,1.6-2.1,2.4-4.1,2.3c-3.2-0.1-6.5-0.1-9.7,0c-1.2,0-2.3-0.2-3-1.4 c-0.7-1.2-0.4-2.3,0.3-3.4c12.3-20.5,24.6-40.9,37-61.4c0.8-1.4,1.7-2.8,2.5-4.2c1.6-2.6,3.9-2.6,5.5,0l25,41.8 c0.3,0.5,0.5,0.9,0.9,1.5c0.3-0.5,0.5-0.8,0.8-1.2c8.4-14,16.8-27.9,25.1-41.8c1-1.6,2.1-2.3,4-2.2c3.3,0.1,6.5,0,9.8,0 c1.2,0,2.3,0.3,2.9,1.5C114.8,12.3,114.5,13.3,113.9,14.4z"/> <path class="st1" d="M197.7,48.7c-0.1,8.7-4,15.7-10.4,21.4c-6.6,5.8-14.3,9.2-22.9,10.8c-12.7,2.4-25,1.1-36.6-4.7 c-7.6-3.8-13.7-9.1-17.2-17c-1.5-3.4-2.2-6.9-2.2-10.6c0-2.9,0-5.7,0-8.6c0-0.5,0.1-1.1,0.4-1.5c4.8-8,9.6-16,14.4-24 c0.1-0.2,0.2-0.3,0.3-0.5c0.1,0,0.1,0.1,0.2,0.1v10.5c0,7.3,0.1,14.7-0.1,22c-0.1,5.4,2.1,9.5,6.2,12.7c4.7,3.7,10,5.7,15.8,6.6 c8.5,1.4,16.7,0.6,24.6-3c3.3-1.5,6.3-3.5,8.7-6.2c2.3-2.6,3.4-5.6,3.4-9.1c0-11.3,0-22.7,0-34c0-2.6,0.9-3.5,3.5-3.5 c2.8,0,5.7,0,8.5,0c2.2,0,3.3,1.1,3.3,3.3C197.7,25.3,197.8,37,197.7,48.7z"/> <path class="st1" d="M393.9,80.6c-0.7,1.1-1.7,1.4-3,1.4c-3.4,0-6.8,0-10.2,0c-1.5,0-2.5-0.6-3.3-1.9c-8.3-14-16.6-27.9-24.9-41.8 c-0.2-0.4-0.5-0.8-0.9-1.4c-5,8.4-10,16.6-15,25c-0.2-0.3-0.4-0.6-0.5-0.8c-2.6-4.4-5.2-8.8-7.9-13.1c-0.4-0.7-0.4-1.1,0-1.8 c7-11.5,13.9-23,20.8-34.5c1.5-2.5,3.9-2.5,5.4,0.1c13.1,21.9,26.1,43.8,39.2,65.6C394.2,78.3,394.6,79.4,393.9,80.6z"/> <path class="st0" d="M387.4,106v3.3h32.9v8c-0.4,0-0.8,0.1-1.3,0.1c-10.6,0-21.2-0.1-31.8,0c-5.2,0.1-8.6-3.9-8.2-8.2 c0.1-1.1,0-2.3,0-3.5c0.1-3.8,2.9-6.8,6.7-7.2c0.5,0,1-0.1,1.6-0.1h33v7.6H387.4z"/> <path class="st0" d="M481.6,110.7c-0.1,3.3-3,6.1-6.3,6.5c-0.6,0.1-1.1,0.1-1.7,0.1h-32c-0.4,0-0.7,0-1.2-0.1V98.4h8.3v11.2h24.8 V98.4h8.1c0,0.1,0.1,0.2,0.1,0.3C481.6,102.7,481.7,106.7,481.6,110.7z"/> <path class="st0" d="M436.6,109.7v7.8c-2.7-0.1-5.5,0-8.2-0.5c-3.1-0.6-5.3-3.5-5.4-6.8c-0.1-7.5,0-15,0-22.5c0-0.1,0-0.2,0.1-0.3 h8.2v22.4H436.6z"/> </g> </svg>